<svg xmlns="http://www.w3.org/2000/svg" xmlns:xlink="http://www.w3.org/1999/xlink" version="1.1" width="256" height="256" viewBox="0 0 256 256" xml:space="preserve">

<defs>
</defs>
<g style="stroke: none; stroke-width: 0; stroke-dasharray: none; stroke-linecap: butt; stroke-linejoin: miter; stroke-miterlimit: 10; fill: none; fill-rule: nonzero; opacity: 1;" transform="translate(1.4065934065934016 1.4065934065934016) scale(2.81 2.81)" >
	<path d="M 48.426 54.596 v -21.64 c 0 -3.423 -2.775 -6.198 -6.198 -6.198 h -1.405 c -0.776 1.079 -2.847 1.852 -5.288 1.852 s -4.512 -0.774 -5.288 -1.852 h -1.405 c -3.423 0 -6.198 2.775 -6.198 6.198 v 18.55" style="stroke: none; stroke-width: 1; stroke-dasharray: none; stroke-linecap: butt; stroke-linejoin: miter; stroke-miterlimit: 10; fill: rgb(232,184,36); fill-rule: nonzero; opacity: 1;" transform=" matrix(1 0 0 1 0 0) " stroke-linecap="round" />
	<path d="M 35.537 24.194 L 35.537 24.194 c -3.514 0 -6.364 -2.849 -6.364 -6.364 v -3.261 c 0 -3.514 2.849 -6.364 6.364 -6.364 h 0 c 3.514 0 6.364 2.849 6.364 6.364 v 3.261 C 41.9 21.345 39.051 24.194 35.537 24.194 z" style="stroke: none; stroke-width: 1; stroke-dasharray: none; stroke-linecap: butt; stroke-linejoin: miter; stroke-miterlimit: 10; fill: rgb(251,206,157); fill-rule: nonzero; opacity: 1;" transform=" matrix(1 0 0 1 0 0) " stroke-linecap="round" />
	<path d="M 35.537 25.194 c -4.06 0 -7.363 -3.303 -7.363 -7.363 v -3.262 c 0 -4.06 3.303 -7.363 7.363 -7.363 c 4.061 0 7.364 3.303 7.364 7.363 v 3.262 C 42.9 21.891 39.597 25.194 35.537 25.194 z M 35.537 9.206 c -2.958 0 -5.363 2.406 -5.363 5.363 v 3.262 c 0 2.958 2.406 5.363 5.363 5.363 s 5.364 -2.406 5.364 -5.363 v -3.262 C 40.9 11.612 38.494 9.206 35.537 9.206 z" style="stroke: none; stroke-width: 1; stroke-dasharray: none; stroke-linecap: butt; stroke-linejoin: miter; stroke-miterlimit: 10; fill: rgb(0,0,0); fill-rule: nonzero; opacity: 1;" transform=" matrix(1 0 0 1 0 0) " stroke-linecap="round" />
	<path d="M 29.313 54.441 c -0.001 0 -0.003 0 -0.005 0 c -0.552 -0.003 -0.998 -0.452 -0.995 -1.005 l 0.086 -18.494 c 0.002 -0.55 0.45 -0.995 1 -0.995 c 0.001 0 0.003 0 0.005 0 c 0.552 0.002 0.998 0.452 0.995 1.005 l -0.086 18.494 C 30.31 53.997 29.863 54.441 29.313 54.441 z" style="stroke: none; stroke-width: 1; stroke-dasharray: none; stroke-linecap: butt; stroke-linejoin: miter; stroke-miterlimit: 10; fill: rgb(0,0,0); fill-rule: nonzero; opacity: 1;" transform=" matrix(1 0 0 1 0 0) " stroke-linecap="round" />
	<path d="M 41.675 51.112 c -0.552 0 -1 -0.447 -1 -1 V 34.948 c 0 -0.552 0.448 -1 1 -1 s 1 0.448 1 1 v 15.165 C 42.675 50.665 42.228 51.112 41.675 51.112 z" style="stroke: none; stroke-width: 1; stroke-dasharray: none; stroke-linecap: butt; stroke-linejoin: miter; stroke-miterlimit: 10; fill: rgb(0,0,0); fill-rule: nonzero; opacity: 1;" transform=" matrix(1 0 0 1 0 0) " stroke-linecap="round" />
	<path d="M 48.427 50.378 c -0.553 0 -1 -0.447 -1 -1 V 32.956 c 0 -2.866 -2.332 -5.197 -5.198 -5.197 H 41.28 c -1.14 1.139 -3.313 1.853 -5.744 1.853 s -4.604 -0.714 -5.744 -1.853 h -0.948 c -2.866 0 -5.198 2.332 -5.198 5.197 v 15.481 c 0 0.553 -0.448 1 -1 1 s -1 -0.447 -1 -1 V 32.956 c 0 -3.969 3.229 -7.197 7.198 -7.197 h 1.404 c 0.322 0 0.624 0.155 0.812 0.416 c 0.513 0.714 2.215 1.437 4.476 1.437 s 3.962 -0.723 4.476 -1.437 c 0.188 -0.261 0.49 -0.416 0.812 -0.416 h 1.405 c 3.969 0 7.198 3.229 7.198 7.197 v 16.422 C 49.427 49.931 48.979 50.378 48.427 50.378 z" style="stroke: none; stroke-width: 1; stroke-dasharray: none; stroke-linecap: butt; stroke-linejoin: miter; stroke-miterlimit: 10; fill: rgb(0,0,0); fill-rule: nonzero; opacity: 1;" transform=" matrix(1 0 0 1 0 0) " stroke-linecap="round" />
	<path d="M 79.177 54.596 v -21.64 c 0 -3.423 -2.775 -6.198 -6.198 -6.198 h -1.405 c -0.776 1.079 -2.847 1.852 -5.288 1.852 S 61.776 27.837 61 26.758 h -1.405 c -3.423 0 -6.198 2.775 -6.198 6.198 v 23.55" style="stroke: none; stroke-width: 1; stroke-dasharray: none; stroke-linecap: butt; stroke-linejoin: miter; stroke-miterlimit: 10; fill: rgb(146,210,45); fill-rule: nonzero; opacity: 1;" transform=" matrix(1 0 0 1 0 0) " stroke-linecap="round" />
	<path d="M 66.287 24.194 L 66.287 24.194 c -3.514 0 -6.364 -2.849 -6.364 -6.364 v -3.261 c 0 -3.514 2.849 -6.364 6.364 -6.364 h 0 c 3.514 0 6.364 2.849 6.364 6.364 v 3.261 C 72.651 21.345 69.802 24.194 66.287 24.194 z" style="stroke: none; stroke-width: 1; stroke-dasharray: none; stroke-linecap: butt; stroke-linejoin: miter; stroke-miterlimit: 10; fill: rgb(251,206,157); fill-rule: nonzero; opacity: 1;" transform=" matrix(1 0 0 1 0 0) " stroke-linecap="round" />
	<path d="M 66.287 25.194 c -4.061 0 -7.363 -3.303 -7.363 -7.363 v -3.262 c 0 -4.06 3.303 -7.363 7.363 -7.363 s 7.364 3.303 7.364 7.363 v 3.262 C 73.651 21.891 70.348 25.194 66.287 25.194 z M 66.287 9.206 c -2.957 0 -5.363 2.406 -5.363 5.363 v 3.262 c 0 2.958 2.406 5.363 5.363 5.363 c 2.958 0 5.364 -2.406 5.364 -5.363 v -3.262 C 71.651 11.612 69.245 9.206 66.287 9.206 z" style="stroke: none; stroke-width: 1; stroke-dasharray: none; stroke-linecap: butt; stroke-linejoin: miter; stroke-miterlimit: 10; fill: rgb(0,0,0); fill-rule: nonzero; opacity: 1;" transform=" matrix(1 0 0 1 0 0) " stroke-linecap="round" />
	<path d="M 60.063 56.441 c -0.001 0 -0.003 0 -0.004 0 c -0.553 -0.002 -0.998 -0.452 -0.996 -1.004 l 0.085 -20.494 c 0.002 -0.551 0.449 -0.996 1 -0.996 c 0.001 0 0.003 0 0.004 0 c 0.553 0.002 0.998 0.452 0.996 1.004 l -0.085 20.494 C 61.062 55.996 60.614 56.441 60.063 56.441 z" style="stroke: none; stroke-width: 1; stroke-dasharray: none; stroke-linecap: butt; stroke-linejoin: miter; stroke-miterlimit: 10; fill: rgb(0,0,0); fill-rule: nonzero; opacity: 1;" transform=" matrix(1 0 0 1 0 0) " stroke-linecap="round" />
	<path d="M 72.426 51.112 c -0.553 0 -1 -0.447 -1 -1 V 34.948 c 0 -0.552 0.447 -1 1 -1 s 1 0.448 1 1 v 15.165 C 73.426 50.665 72.979 51.112 72.426 51.112 z" style="stroke: none; stroke-width: 1; stroke-dasharray: none; stroke-linecap: butt; stroke-linejoin: miter; stroke-miterlimit: 10; fill: rgb(0,0,0); fill-rule: nonzero; opacity: 1;" transform=" matrix(1 0 0 1 0 0) " stroke-linecap="round" />
	<path d="M 53.397 52.437 c -0.553 0 -1 -0.447 -1 -1 V 32.956 c 0 -3.969 3.229 -7.197 7.197 -7.197 H 61 c 0.322 0 0.624 0.155 0.812 0.417 c 0.514 0.713 2.216 1.436 4.476 1.436 s 3.963 -0.723 4.477 -1.437 c 0.188 -0.261 0.49 -0.416 0.812 -0.416 h 1.404 c 3.969 0 7.197 3.229 7.197 7.197 v 16.422 c 0 0.553 -0.447 1 -1 1 s -1 -0.447 -1 -1 V 32.956 c 0 -2.866 -2.331 -5.197 -5.197 -5.197 h -0.948 c -1.141 1.139 -3.314 1.853 -5.744 1.853 s -4.604 -0.714 -5.743 -1.853 h -0.949 c -2.866 0 -5.197 2.332 -5.197 5.197 v 18.481 C 54.397 51.989 53.95 52.437 53.397 52.437 z" style="stroke: none; stroke-width: 1; stroke-dasharray: none; stroke-linecap: butt; stroke-linejoin: miter; stroke-miterlimit: 10; fill: rgb(0,0,0); fill-rule: nonzero; opacity: 1;" transform=" matrix(1 0 0 1 0 0) " stroke-linecap="round" />
	<path d="M 57.573 55.478 c -1.642 -2.862 -4.127 -5.843 -8.897 -5.024 l -14.163 2.565 c -4.919 0.402 -8.363 -3.877 -13.148 -3.452 l -3.311 0.294 v 28.334 l 6.702 -0.595 c 6.712 -0.596 12.971 4.707 19.198 4.154 c 6.804 -0.594 24.932 -12.388 43.759 -24.133 c 1.221 -0.762 1.669 -2.371 0.926 -3.604 c -3.835 -6.365 -9.894 -8.303 -14.855 -6.074 L 57.573 55.478 z" style="stroke: none; stroke-width: 1; stroke-dasharray: none; stroke-linecap: butt; stroke-linejoin: miter; stroke-miterlimit: 10; fill: rgb(251,206,157); fill-rule: nonzero; opacity: 1;" transform=" matrix(1 0 0 1 0 0) " stroke-linecap="round" />
	<path d="M 15.534 81.794 H 3.52 c -1.392 0 -2.52 -1.128 -2.52 -2.52 V 46.979 c 0 -1.392 1.128 -2.52 2.52 -2.52 h 12.014 c 1.392 0 2.52 1.128 2.52 2.52 v 32.295 C 18.054 80.666 16.925 81.794 15.534 81.794 z" style="stroke: none; stroke-width: 1; stroke-dasharray: none; stroke-linecap: butt; stroke-linejoin: miter; stroke-miterlimit: 10; fill: rgb(75,109,170); fill-rule: nonzero; opacity: 1;" transform=" matrix(1 0 0 1 0 0) " stroke-linecap="round" />
	<path d="M 43.034 82.438 c -2.937 0 -5.845 -1.081 -8.667 -2.13 c -3.111 -1.156 -6.328 -2.35 -9.523 -2.068 l -7.791 0.692 V 48.589 l 4.223 -0.375 c 2.654 -0.228 4.868 0.799 7.012 1.797 c 2.025 0.944 3.942 1.848 6.143 1.655 l 14.065 -2.553 c 5.041 -0.857 7.794 2.065 9.471 4.723 l 15.394 -7.157 c 5.77 -2.589 12.244 0.01 16.134 6.466 c 1.011 1.676 0.449 3.905 -1.252 4.968 c -1.997 1.246 -3.985 2.492 -5.953 3.725 C 65.158 72.571 50.363 81.842 44.041 82.394 C 43.705 82.424 43.37 82.438 43.034 82.438 z M 25.83 76.196 c 3.215 0 6.269 1.135 9.234 2.237 c 3.07 1.141 5.968 2.225 8.802 1.968 c 5.843 -0.51 21.154 -10.103 37.363 -20.259 c 1.969 -1.234 3.958 -2.48 5.955 -3.727 c 0.78 -0.487 1.049 -1.492 0.599 -2.239 c -3.341 -5.546 -8.802 -7.827 -13.589 -5.679 l -17.031 7.918 l -0.456 -0.797 c -1.52 -2.648 -3.646 -5.256 -7.861 -4.536 l -14.153 2.564 c -2.83 0.231 -5.076 -0.812 -7.248 -1.823 c -1.992 -0.928 -3.878 -1.809 -5.99 -1.618 l -2.4 0.213 v 26.327 l 5.614 -0.499 C 25.057 76.213 25.445 76.196 25.83 76.196 z" style="stroke: none; stroke-width: 1; stroke-dasharray: none; stroke-linecap: butt; stroke-linejoin: miter; stroke-miterlimit: 10; fill: rgb(0,0,0); fill-rule: nonzero; opacity: 1;" transform=" matrix(1 0 0 1 0 0) " stroke-linecap="round" />
	<path d="M 39.09 67.673 c -0.467 0 -0.885 -0.328 -0.979 -0.804 c -0.108 -0.542 0.243 -1.068 0.784 -1.177 c 5.572 -1.114 11.836 -3.662 19.126 -7.781 l -1.315 -2.291 c -0.275 -0.479 -0.109 -1.091 0.369 -1.365 c 0.48 -0.274 1.091 -0.11 1.365 0.369 l 1.814 3.161 c 0.274 0.479 0.11 1.09 -0.368 1.364 c -7.854 4.521 -14.591 7.303 -20.599 8.504 C 39.221 67.667 39.155 67.673 39.09 67.673 z" style="stroke: none; stroke-width: 1; stroke-dasharray: none; stroke-linecap: butt; stroke-linejoin: miter; stroke-miterlimit: 10; fill: rgb(0,0,0); fill-rule: nonzero; opacity: 1;" transform=" matrix(1 0 0 1 0 0) " stroke-linecap="round" />
	<path d="M 15.534 82.438 H 3.52 c -1.941 0 -3.52 -1.579 -3.52 -3.521 V 46.624 c 0 -1.941 1.579 -3.52 3.52 -3.52 h 12.014 c 1.941 0 3.52 1.579 3.52 3.52 v 32.294 C 19.054 80.859 17.475 82.438 15.534 82.438 z M 3.52 45.104 c -0.838 0 -1.52 0.682 -1.52 1.52 v 32.294 c 0 0.839 0.682 1.521 1.52 1.521 h 12.014 c 0.838 0 1.52 -0.682 1.52 -1.521 V 46.624 c 0 -0.838 -0.682 -1.52 -1.52 -1.52 H 3.52 z" style="stroke: none; stroke-width: 1; stroke-dasharray: none; stroke-linecap: butt; stroke-linejoin: miter; stroke-miterlimit: 10; fill: rgb(0,0,0); fill-rule: nonzero; opacity: 1;" transform=" matrix(1 0 0 1 0 0) " stroke-linecap="round" />
</g>
</svg>